<svg xmlns="http://www.w3.org/2000/svg" viewBox="0 0 700 700"><path d="M309.1 26.8c-.5.9-3.5 1.7-8.2 2.2-4.1.5-11 1.6-15.4 2.4l-14 2.7c-3.3.6-8.9 2.2-12.5 3.5s-8.7 2.8-11.5 3.4c-2.7.7-5.9 1.5-7 2a104.72 104.72 0 0 1-6.5 2.1c-2.5.7-4.9 1.6-5.5 1.9-.5.4-3.2 1.6-6 2.6-10.9 4-45 21.8-56.2 29.4-23 15.6-32.5 22.9-45.8 35.5-3.8 3.7-7.5 7-8.1 7.3-1.4.9-19.9 21.4-23.9 26.6l-12.8 16.9c-3.1 4.1-6.4 9-7.1 10.9-.8 1.9-2.2 4-3 4.7s-3.5 4.7-6 8.9c-5.1 8.8-20.6 40.4-20.6 42.1 0 .6-1.2 4-2.7 7.4-3.2 7.6-8 23-10.5 33.7-.5 2.5-1.4 6.3-1.9 8.5-2.9 11.8-6 32.6-6.9 44.3-.5 7.4-1.4 13.9-1.9 14.6-1.3 1.5-1.1 25.8.2 26.7.4.3 1.2 6.2 1.7 13s2 18.9 3.5 26.9l3.2 18.3c.3 2 .9 4 1.4 4.3s.9 2 .9 3.9.5 3.7 1 4c.6.3 1 1.8 1 3.3s.9 4.9 1.9 7.7c1.1 2.7 3.1 8.4 4.6 12.5l3.5 9.5c3 7.7 5.5 13.7 7.6 18.2 1.3 2.8 2.4 5.5 2.4 5.9s.6 1.5 1.4 2.3c.7.9 3.1 5 5.3 9.1l7.4 13.5c3.8 7 20.9 31.3 23.9 34 1.1 1 2 2.1 2 2.5 0 1.9 33.4 36.4 43.5 44.7 4.6 3.9 14.9 11.7 19.9 15.3 1.2.8 4.6 3.4 7.6 5.6 11 8.3 35.3 21.6 56.7 31 12.7 5.5 41.1 15.4 44.4 15.4 1 0 2.1.4 2.4 1 .3.5 1.9 1 3.4 1s4.1.4 5.7 1c1.6.5 7.4 1.7 12.9 2.5l19.5 3.1c5.4.8 20.4 1.7 35 2 29.1.7 45.5-.4 68.5-4.6 3.3-.6 8-1.4 10.5-1.7s4.9-.9 5.4-1.4c.6-.5 2.1-.9 3.4-.9 2.6 0 10.2-2.2 17.6-5.1 2.7-1 5.7-1.9 6.7-1.9 1.1 0 2.7-.4 3.7-.9.9-.5 3.7-1.4 6.2-2.1s6.2-2.1 8.3-3.1c2.2-1 4.4-1.9 5-1.9.5 0 6-2.4 12.1-5.4 6.1-2.9 12.2-5.7 13.6-6.1s3.9-1.8 5.5-3c1.7-1.3 4.6-3 6.5-3.9 18.2-8.3 63.4-43.6 80.5-62.9 12.7-14.2 22.6-26.4 25-30.7 1.4-2.5 4.3-6.7 6.4-9.3 5.5-7 14.9-23.2 22.1-38.2 8.9-18.6 9.4-19.8 14-32 4.1-10.8 5.3-14.5 7-21.5.4-1.9 2-8 3.4-13.5s2.6-10.8 2.6-11.8c0-1.1.7-3.3 1.4-5 .8-1.8 1.7-6.1 1.9-9.7l2.1-25.5c1.4-15.6 1.5-22.5.7-38.5-1.2-23.9-4.1-45.2-7.2-52.8-.5-1.3-.9-3.6-.9-5.2s-.4-3.9-.9-5.2-1.4-4.2-2-6.6l-2.2-8.5c-.6-2.3-2.2-6.9-3.5-10.2s-3.3-8.9-4.4-12.5c-2.4-7.4-2.5-7.8-7.4-18l-5.2-11.5c-.9-2.2-2.2-4.7-2.9-5.5s-2.5-4-4-7c-1.6-3-4.4-7.8-6.2-10.7-1.8-2.8-3.3-5.6-3.3-6.1s-.9-1.7-2-2.7-2-2.2-2-2.6c0-.5-6-8.6-13.4-18.1-9.4-12-18.3-22-29.3-32.8-15.6-15.3-29.9-27.9-33.1-29.1-1-.4-3-2.1-4.6-3.8-1.7-1.7-3.3-3.1-3.8-3.1s-6.6-3.8-13.8-8.4C513.6 69 480.9 52 477.6 52c-.3 0-3.2-1.3-6.4-2.8-3.2-1.6-8-3.4-10.7-4.2-2.8-.7-5.4-1.7-6-2.1-.5-.5-1.8-.9-3-.9-2.2 0-9.1-2.2-10.1-3.3-.4-.4-2-.7-3.6-.7s-3.9-.5-5.1-1.2c-3.5-1.8-11.2-3.4-36.2-7.3-14.6-2.3-21.1-2.7-46.5-3.1l-34.8-.8c-3.8-.2-5.5.1-6.1 1.2zM392 40.9c24.3 3.9 29.4 4.9 34.3 6.7 2.3.9 6.7 2 9.7 2.5 3 .6 6.8 1.7 8.4 2.5 1.6.7 3.7 1.4 4.7 1.4s4.2 1 7.1 2.3 6.7 2.7 8.3 3.1c3.1.8 7.7 2.8 23.5 10.5 30.1 14.6 54 30.8 76.5 52l12.5 11.7c11.2 10.3 35.9 40.6 36 44.1 0 .6.8 1.8 1.8 2.5 3.3 2.4 27 45.6 27.2 49.5 0 .7 1.1 3.6 2.4 6.5s3.4 8.2 4.6 11.8c1.3 3.6 2.6 6.9 3.1 7.4.5.6.9 1.9.9 3.1 0 1.1.8 4.3 1.8 7 1 2.8 2.4 7.7 3.1 11l2.6 12c.8 3.3 1.9 8.9 2.5 12.5.7 3.6 1.6 8.3 2.2 10.5 1.5 6.3 2.2 59.4.9 71.5-1.8 16.8-3 24-4.7 29.9-1 3.1-2.1 7.6-2.5 10.1-2 11.2-2.8 14.8-4.2 18-.8 1.9-2.7 7.3-4.2 12-1.6 4.7-3.6 10.3-4.7 12.4-1 2.2-1.8 4.6-1.8 5.3 0 2-11.9 27.1-15.5 32.8-1.8 2.7-6.5 10.4-10.5 17-4.1 6.6-10.3 15.8-13.9 20.5-7 8.9-24.4 28-35.8 39.2-8.5 8.3-25.9 22.7-29.3 24.2-1.4.6-3.4 1.9-4.5 2.9-7 6.4-24.4 17.2-42 26-2.7 1.3-6.8 3.4-9 4.6-2.1 1.1-4.4 2.1-5.1 2.1-.6 0-4.5 1.6-8.7 3.5s-8.2 3.5-8.9 3.5c-.8 0-3.3.9-5.6 2-2.2 1.1-5 2-6.1 2s-2.3.4-2.6 1c-.3.5-1.5 1-2.6 1-1.2 0-5.3 1.1-9.2 2.4-4 1.3-9.9 2.9-13.2 3.6-3.3.6-6.9 1.4-8 1.7-1.1.2-4.7.8-8 1.3s-8.5 1.4-11.5 2.1c-3.9 1-15.9 1.3-42 1.4-45.2 0-52.5-.5-72.5-5.5-3.8-1-8.8-2.1-11-2.5S262 656 259 655s-8.9-2.8-13-4c-10.6-3.2-16.4-5.3-25-9.3l-16.3-7.5c-9.1-4.3-32.2-17.5-33.1-19.1-.3-.5-2.4-1.9-4.7-3-6.5-3.4-28.4-20.9-40.1-32-19.9-19-42.7-47-53.4-65.6-1.5-2.8-3.1-5.2-3.4-5.5-.7-.7-3.1-4.9-4.8-8.5-1.3-3-3.1-6.4-7.1-14-6.6-12.7-17.2-42-20.4-56.5-3.5-15.8-6.2-29.9-7.6-40-.9-6.2-2.7-38.9-2.4-42 .1-.8.7-8.5 1.3-17 1-14.4 1.6-19.7 4-32.5l2-11.5c.6-3.6 1.5-7.9 2-9.5l3.1-10.5c1.1-4.1 2.7-9 3.5-10.8S45 252 45 251c0-1.1.8-3.9 1.9-6.3l4-8.9c1.1-2.6 2.1-5.2 2.1-5.7 0-1.7 10.5-22.7 16-32 6.5-10.9 16.6-26 22.9-34.1l8.3-11c9-12.3 44.9-45.6 59.4-55l9.1-6.1c12.4-8.4 25.1-15.7 37.3-21.5 15.5-7.3 19.6-9.2 25-10.9 5.5-1.8 13.7-4.8 17.5-6.5 1.1-.5 3.4-1.1 5-1.3 1.7-.3 5.5-1.2 8.5-2.1 9.8-3 21.4-5.7 28-6.6l15.5-2c4.9-.6 9.2-1.4 9.5-1.7.9-.9 70.4.5 77 1.6zm41.9 33.3c-2.8 2.4-4.9 6.7-4.9 10.2 0 4.4-.9 5-5.9 3.2-2.2-.7-4.3-1.1-4.6-.8S418 89 418 91c0 3.7 2.3 7 5 7 1.8 0 .8 5.2-2.3 12-1.4 3-2.7 6.6-3 8s-1.7 5.8-3.2 9.7c-2.4 6.7-2.5 7.5-1.1 10l2.6 5.1c1.7 4 4.1 2.2 6.4-4.8 1.2-3.6 3-8.2 3.9-10.4.9-2.1 1.7-4.4 1.7-5.2 0-1.3.7-3.3 3.6-9.9l2.4-5.9c.9-2.6 1.3-2.8 4.6-2.1 2 .3 5.5 1.5 7.8 2.5 8.3 3.7 13.2 5.8 15.6 6.5 1.4.4 3.6 1.6 4.9 2.6 1.3 1.1 2.8 1.9 3.3 1.9.6 0 2.6.7 4.5 1.6 3 1.5 3.4 2 2.8 4.3-.3 1.4-1.2 3.2-1.9 3.9-1.1 1.1-1.8.6-4-3.2-1.5-2.5-3.3-4.6-4.1-4.6s-1.5-.3-1.5-.8c0-.9-9.1-4.2-11.6-4.2-2.4 0-8.4 3.6-10.6 6.3-2.5 3.1-2.4 12.6.1 17.5 3.4 6.6 7.7 9.2 17.4 10.7 3.6.6 4.7 1.8 2.7 3-2.2 1.4.1 10.7 3.3 13.3 1.2 1 2.1-.2 5.5-7 15.2-31.3 15-31 18.7-30.3 1.6.3 4.7 1.8 6.9 3.3 2.1 1.5 4.9 3.4 6.2 4.2 3.7 2.3 3 5.6-2 10.6-3.6 3.6-5 4.4-8.1 4.4h-3.7l.3 8.5c.3 6.3.8 8.9 2.1 10.1 1.6 1.7 1.8 1.7 3.7 0 2-1.8 2.2-1.8 4.8-.1 1.6 1 4 2.9 5.5 4.3l2.7 2.5-3.4 4.2c-3.5 4.2-4.4 7.8-2.5 9 1.8 1.1.1 2.3-4 3-3.9.7-4 .7-4 5 0 4.2 0 4.2 4.1 4.8 4.7.6 5.4 1.1 4.6 3.2-.8 2-8 2-9.7 0-.7-.8-1.8-1.5-2.6-1.5-1.2 0-2.2-1.7-5.2-9.2-.6-1.5-1.4-5-1.8-7.8-.5-3.9-1-5-2.5-5-2.4 0-3.6 6.2-2 10.5.6 1.7 1.1 3.8 1.1 4.7 0 .8 1.6 4.7 3.7 8.7 3.9 7.8 7.1 10.1 13.9 10.1 8 0 11-4 10.2-13.8-.3-3.1-.1-6.7.3-8 .8-2.1 8.1-10.9 16.4-19.8 1.7-1.7 4.3-4.8 5.8-6.8s3.4-3.6 4.1-3.6c1.3 0 8.9 8.1 21.4 23 7.3 8.6 8.9 12.5 5.5 13.7-1 .3-2.5 1.2-3.4 2-1.5 1.2-1.7.9-2.1-3.7-.9-9.1-8.2-15.4-17.1-14.7-5.2.4-7.8 2.3-10.3 7.1-4.5 8.9-1.9 19.8 5.5 23.6 4.8 2.4 5 3.2 1.6 5.4-2.2 1.4-2.5 2.4-2.5 7.1 0 5.2.1 5.5 2.5 5.5 1.4 0 4.1-1.4 6.2-3.3 5.1-4.5 9.8-7.7 11.4-7.7 1.8 0 7.8 4.2 8.4 5.9.3.8-.9 3-2.9 5-4 4.1-10.5 15.2-11.3 19.3-.5 2.5-.3 2.8 2 2.8 1.9 0 2.9-.9 4.2-3.8 2-4.3 6.3-9.2 8.1-9.2.7 0 1.4-.5 1.6-1.2.3-.9 1.4-1 4.3-.3 3.2.8 4.3 1.8 6.4 5.6 2.6 5 2.3 7.8-.9 8.6-1.1.3-2 .9-2 1.4s-.6.9-1.3.9c-2.4 0-11.7 5.2-12.7 7-.6 1-1 3.2-1 4.8 0 5.9 1.5 5.7 19.6-3.3 9.3-4.6 17.8-8.6 18.9-8.9 1.5-.4 2.4.2 3.8 2.5.9 1.7 1.7 3.7 1.7 4.5s.4 2.2.9 3.2c1.4 2.8 2.9 8.4 3.6 13.3.6 3.7.4 4.7-.9 5.2-2.5 1-4.5-.2-7.7-4.9-3.5-5.1-5.3-5.4-10.9-1.9-4.3 2.7-7.6 7.3-10.2 14.3-1.7 4.5-1.3 7.4 1.8 11.2.6.8 1.5 2.5 1.8 3.7.5 1.7.2 2.3-1.6 2.8-3.5 1.1-5.4 3.1-6.8 7.5-1.7 5.2-.6 6.6 4.2 5.2 1.8-.6 5.8-1.5 8.8-2.2 3-.6 7.1-1.5 9-2 16.9-4.5 21-4.9 21-2.1 0 3.2 1.1 5.1 2.9 5.1 2.5 0 7.1-5.2 7.1-7.9 0-2.5 2.9-8.1 4.3-8.1 1.8 0 10.5-9.3 12.2-13 1.4-3.2 1.6-4.9.9-7.8-1.1-4.7-3.4-5.1-8.4-1.8l-3.9 2.6 1.5 3.5c1.3 3.3 1.3 3.7-1 7.2-2.8 4.5-6.4 7.9-7.2 7-.4-.4-2-5.9-3.6-12.4-6.2-25-12.6-42.8-23.1-64.3-5.5-11.2-19.1-31.9-30.3-46-6.1-7.7-34.8-35.8-42.3-41.5-2.9-2.2-7.4-5.7-9.9-7.8-2.6-2-5.2-3.7-5.9-3.7s-1.3-.5-1.3-1c0-.6-.5-1-1.1-1s-2.5-1.1-4.2-2.4c-3.7-2.8-11.3-6.9-28.2-15.4-17.6-8.8-25-11.8-32.7-13.6-5.3-1.2-4.4-8.3 1.3-10.6 2-.9 3.7-.9 6.1-.1 3.7 1.2 12.9 8.7 17.8 14.3 1.8 2.1 3.8 3.8 4.6 3.8 1.8 0 1.8-4 0-7.4-2.1-4.1-16.7-18.6-20.3-20.2-4-1.7-14.4-1.8-16.4-.2zm29 54.7c4.2 2.2 7.5 6.5 6.7 8.7-.4 1-2.5 1.4-7.9 1.4-6 0-7.9-.4-10.1-2.1-3.1-2.5-3.1-2.5-.6-6.7 2.4-3.8 6-4.2 11.9-1.3zm60 22.3c1.7 1.5 3.1 3.2 3.1 3.8 0 3.3-7.1 13-9.5 13-.6 0-3.1-2-5.5-4.5-4.9-5-5-4.4 2.4-12.2 4.2-4.5 4.3-4.5 9.5-.1zm22.5 45.8c4.2 1.5 7.4 10.1 4.3 11.3-.7.2-3.7-.5-6.7-1.7-4.1-1.7-5.7-2.9-6.5-5-1.6-4.5 3-6.9 8.9-4.6zm37.3 24.5c3.5 6.5 6.3 12.3 6.3 12.7 0 .5.9 2.8 2 5 1.1 2.3 2 4.8 2 5.5 0 1.3-4.6 4-5.4 3.2-.2-.2-2-3.6-3.9-7.5-3.9-7.8-8.5-12.4-12.3-12.4-2.3 0-2.4-.1-1-1.6 2.3-2.3 2-3.1-2.4-7.6-4.5-4.6-4.3-6.5 1.3-9.8 4.5-2.8 6-1.4 13.4 12.5zm9.7 71c3.2 5.4 5.3 5.7 11.5 1.6 2.5-1.7 4.8-2.8 5.2-2.5 1 .6 3.1 10.3 2.4 11.3-.2.5-3.6 1.6-7.4 2.5-7.6 1.8-10.5 1.2-14.2-3-4-4.5-6.4-13.6-4.3-15.7 1.2-1.2 4.2 1.3 6.8 5.8zM310.3 79.9c-6.7.3-12.5.9-12.8 1.3-1.4 1.3.5 5.8 3.2 7.5 2 1.4 4.3 1.7 9.1 1.5 5-.2 6.9.1 8.3 1.4 1.8 1.6 1.8 1.8.2 3.7-1 1.1-3.7 2.8-6 3.8-3.1 1.3-4.3 2.4-4.3 3.9 0 3.5 4.6 11.3 9.3 15.9l4.6 4.4 6.2-.7c3.5-.4 7.1-1.2 8.2-1.7 2.4-1.3 4.3.2 5 4.1.5 2.2 1.7 3.5 4.8 5 3.8 2 4.3 2 5.7.6s1.5-2.6.2-11.3c-.8-5.4-1.4-14.8-1.5-20.8v-11l5.7-.3c9.9-.5 9.6-1.3 9 21.6l-.5 19.8 3.2 2.7c3.5 2.9 4.6 3.3 5.6 1.8.5-.8 1.5-11.3 3.2-34.1.6-8.1 1.6-9.4 6.4-8.6 2.3.4 4 .2 4.5-.5 1-1.6-1.6-8.7-3.5-9.4-2.3-.9-59.1-1.4-73.8-.6zm28.6 15.5c.7 4 1 8.3.7 9.4-.8 2.6-9.7 7.7-14.8 8.6-3 .6-3.9.3-4.7-1.3-1.5-2.7-.4-4.9 2.8-5.6 4.2-.9 7.4-4.3 6.6-6.9-3.4-11-3.2-11.6 4.1-11.6h4l1.3 7.4zm-83.6-2c-3.4 1.2-6.6 2.5-6.9 2.9-.4.4-1.6.7-2.6.7-1.1 0-7.1 2.5-13.4 5.5s-12.1 5.5-12.9 5.5a2.75 2.75 0 0 0-2.1 1.1c-.3.6-3.4 2.3-6.8 3.9-11.4 5.2-29.4 17.3-42 28.4-10.5 9.2-38.5 37.8-42.4 43.3-3.2 4.5-5.6 4.2-8.1-1-2.6-5.4-2.6-5.3.5-9.4 3.6-4.7 12.7-11.2 18.8-13.3 3.7-1.3 5.2-2.4 5.4-3.9.3-1.8-.2-2.1-3.2-2.1-2 0-4.4.4-5.4.9-.9.6-4.6 2.2-8.2 3.7-9.5 4-14.1 7.4-17.7 12.9-5.7 8.6-4.2 16 3.8 19.8 2.7 1.2 4.8 2.6 4.9 3.2 0 .5-.9 2.5-2 4.3-3.7 6 .8 7.8 9.8 4.1 2.2-.9 3.7-1 4.7-.4.8.6 6.9 4.9 13.5 9.7 11.3 8.1 12.6 8.8 17 8.8 3.1 0 5.6-.6 7-1.8l2.2-1.8-6.9-4.7c-15-10.5-27.8-19.9-28.1-20.7-.6-1.8 5.9-9.7 19.7-23.9l14-14.3 7.1 7.7-4.5.7c-10.5 1.5-17.4 8.9-17.5 18.5 0 3.5.6 5 3.6 8.3l3.6 4h17.2l4.3-4.2c2.4-2.3 4.3-4.7 4.3-5.4 0-.6.9-1.9 1.9-2.8 1.9-1.7 2.1-1.7 4.8.2 3.2 2.2 11.1 2 12-.4.5-1.3-7.3-10.7-18.1-21.8-2.7-2.8-6-6.6-7.4-8.4l-2.5-3.3 2.8-2.9c3.1-3.2 27.5-19 29.4-19 1.5 0 1.4 1.5-.2 2.9-.8.6-3.8 2.4-6.8 3.9-9.9 5.3-9.7 10.6.5 18.1 3.7 2.8 5.5 4.8 5.9 7 .9 4.4 6.2 6.6 15.3 6.5 8.2-.1 12.1-2.3 16.4-9.3 2.5-4 2.6-4 8.3-4.1 6.3 0 8.2-1.7 5.4-4.8-.9-.9-3.3-5.1-5.5-9.2l-8-15c-5.4-9.7-5.3-11.1.1-13.4 2.3-.9 5-2.1 5.9-2.7 2.5-1.3 5.4-1.1 6.6.4.6.7 2 4.8 3.2 9.2s2.8 9.3 3.5 11c.7 1.6 2 5.5 3 8.7 1.8 6.3 4 8.8 8 9.1 4.8.4 5.2-2 2.1-11.9l-3.8-12.4-2.9-9.1c-2.5-7.4-2.4-9.6.4-10.4 4.3-1.2 7.7-2.8 7.7-3.5 0-1.5-7.7-6-10.1-5.9-1.3.1-5.2 1.1-8.6 2.3zM228 122.2c1.2 2.4 3.5 6.8 5.1 9.8s2.9 6.9 2.9 8.6c0 7-14.4 20.8-18.9 18-1.8-1.2 1-6.6 4.3-8.3 4.7-2.3 6.6-4.4 6.6-6.9 0-5.6-8.2-5.5-14.9.2-4.3 3.7-7.1 3.9-7.1.6 0-1.8 3.1-4.5 8.3-7.2 4-2 7.7-5.6 7.7-7.4 0-.8-1.2-2.6-2.6-4-3-2.7-2.7-5.1.8-6.6 4.2-1.6 5.5-1.1 7.8 3.2zm-48.5 50.7c-.3 1.4-1.9 5.4-3.5 8.8-2.3 5-3.4 6.3-5.1 6.3-3.5 0-5.9-2.8-5.9-6.9.1-5.2 2.2-8.2 7.1-10.1 5.7-2.3 8.3-1.6 7.4 1.9z"/><path d="M324 158.1c-11 1.2-25.9 3.9-30.5 5.4l-9.5 3c-6.7 2-13.3 4.8-26.5 11.3-12.4 6.1-16.3 8.5-27.5 16.8-12.6 9.4-21.1 17.1-30.8 27.9l-9 10c-1.6 1.6-4 5.1-5.5 7.7s-3.3 5.1-4 5.5c-2.5 1.6-16.1 28.7-21 41.8-1.9 5.2-6.1 20.9-8.1 30.5-3.9 18.8-4 53.1-.1 68l2.5 11.5c1.4 7.1 6.9 24 10 31l3.4 7.5c3 6.7 14.2 25 20.7 33.7 8.4 11.3 29.1 32.1 37.6 37.8 3.2 2.1 6.7 4.7 7.8 5.6 3.2 2.8 18.2 11.7 24.9 14.8 14.1 6.7 24.7 11.1 26.6 11.1 1 0 2.9.4 4.2.9 4.6 1.8 21.5 5.9 28.6 7 9.3 1.4 43.8 1.4 56.7 0 10.3-1.1 18.9-2.9 28.5-5.9l10-3.1c12.2-3.7 45.8-20.7 50.8-25.7 1-1 3.6-3.1 5.7-4.7 8.8-6.5 24.3-21.6 32.9-32 12.1-14.7 15.6-19.9 23.1-35.5 9.8-20.1 15.5-36.8 18.7-55 1.7-10 1.8-56.2.1-64.3-.7-3.1-1.8-8.3-2.4-11.5-.5-3.1-1.7-7.7-2.5-10.2-4.7-13.8-5.9-17-8.2-22-1.3-3-3-7.2-3.8-9.3-.7-2-2.7-5.7-4.4-8.1-1.6-2.5-3.5-5.5-4-6.8-2.4-5.2-13.2-19.5-22.1-29.1-14.9-16.2-37.6-35.7-41.4-35.7-.8 0-1.6-.4-2-1-.8-1.3-20.5-12-22.1-12-.8 0-1.4-.4-1.4-.8s-2.1-1.4-4.7-2.1c-2.7-.8-5.4-1.9-6.2-2.5-1.8-1.4-8.1-3.6-10.7-3.6-1.1 0-3.4-.7-5.1-1.5-10.7-5.3-56-9-79.3-6.4zm16.8 98.8l-1.1 88.7c-.4.5-9.2.7-19.5.6-14.3-.1-20-.6-24.1-1.9-5.1-1.6-5.4-1.6-6.7.2-.8 1-1.7 1.5-2.1 1.1s.1-1.2 1.1-1.8c1.8-1 1.8-1.2.2-2.3-.9-.7-2.7-3.1-3.9-5.4-1.2-2.2-5-7.9-8.4-12.7-3.5-4.8-6.3-9.3-6.3-10.1 0-2.3-1.9-1.4-2.6 1.2-.5 1.9.3 3.8 2.9 7.7 1.9 2.9 3.2 5.4 2.9 5.5-.4.1-1.9.4-3.4.7-2.9.7-3.6 2.7-1.8 4.9 4 4.7 8.1 10.9 7.6 11.5-1.1 1-5.8-1.2-7-3.3l-1.4-2.5c-.2-.3-.9.3-1.7 1.3-1.1 1.6-1.3 1.5-1.9-1.4s-2.6-3.3-2.6-.3c0 .8-.9 1.4-2 1.4-2.4 0-2.5-.4-.4-3.5.9-1.4 1.3-3.2.9-4.5-1-3.1-3-1.9-3.3 2.1-.2 1.9-.8 3.8-1.3 4.3-1.3 1.4-1.1 5.4.4 5.9.7.2.6.3-.3.3-1.7-.1-3.3-8.7-1.8-9.7.4-.3 1.1-3.5 1.5-7.1.4-5 .9-6.5 1.9-6.1.8.3 1.8-.6 2.5-2.1 1-2.1.9-3.6-.4-7.7-1.2-3.6-1.7-8.3-1.6-15.8.1-8.3.3-9.8 1-6.6.4 2.2.8 7.3.8 11.2.1 4 .5 7.3 1 7.3 1.2 0 2.1-5.1 2.2-13.9l.2-7.6.7 7c.9 8.5 2.6 14.9 4.3 16.3 1.8 1.5 4.7-1.3 10.1-9.6 2.5-4 5-7.2 5.4-7.2.5 0 1.2 2.8 1.5 6.3.6 6.9 1.5 9.7 2.8 9.7.5 0 .9-1.1.9-2.5s.5-2.5 1-2.5c.6 0 1 1.3 1 2.9 0 3.1 1.4 4.9 2.5 3.1s2.3-1.1 3.4 2.1c.9 2.7 1.3 3 2.6 1.9.8-.7 1.5-2.1 1.5-3.1 0-1.1.7-1.9 1.5-1.9s2.4-.9 3.5-2 2.2-1.5 2.5-1c1.4 2.3 2.5.7 2.5-3.5 0-4.9.6-5.5 2.6-2.8 2 2.6 1.7 4.5-1.6 11.6-3.3 7.2-3.5 7.7-2 7.7 1.9 0 6-5.2 6-7.6 0-3.2 2.7-5.6 4.9-4.4 2.1 1.1 4.1-.5 4.1-3.2 0-.9.5-2.7 1.1-4 .6-1.5.7-3.2.1-4.8-.8-2.1-.4-3.2 2.4-6.9 7.9-10.3 6.5-18.7-4.8-30.7-10.3-10.8-20.6-17.3-35.3-22-8.7-2.8-9.7-2.9-27.5-2.8-17.4.1-19 .2-26.5 2.8-4.4 1.5-12.5 4.9-18 7.6-8.3 4.1-11.5 6.4-18.9 13.5-7.4 7.3-9 9.4-10.1 13.5-1.4 5.3-.6 7.5 5.9 16.9 3.5 5 4.5 9.8 4.6 21.3 0 4.8.4 9 1 9.3 1.4.9 2-2.8 2.3-14.5.2-11.4 2-14.6 2.5-4.5.1 3.3.5 7.1.7 8.3.9 3.8 3.1.9 3.8-4.9.7-5.7 1.2-6.8 2.7-5.3.7.7.7 3.3-.1 8l-1.6 10.3c-.6 3.9 1.5 11.3 3.1 10.8.6-.2 1.4-4.1 1.7-8.8 1.2-15 2.2-21.9 3.1-21.3.4.3.8 2.2.7 4.2-.1 5 1.8 19.9 2.7 21.4 1.4 2.2 2.2-3 2.3-14.4.1-6 .5-11 1.1-11.3.6-.4 1 .7 1 2.7-.1 7.2 2.1 29.3 2.9 30.1 1.7 1.7 3.4-5.2 2.5-10.6-1.1-6.7-1.1-18.6 0-21.2l.8-2 .8 2c.5 1.1.9 7 .9 13.2.1 11.3.8 13.6 3.2 10.6 1-1.1 1.5-5.2 1.6-13.6.2-6.6.5-12.3.8-12.5.9-.9 5.5 4 8.2 8.6 2 3.4 2.6 5.9 2.8 11 .2 8.4-2.7 14.5-9.6 20.5-2.7 2.3-4.9 5-4.9 5.9 0 2.4-4.6 3.4-8.4 1.9-2.8-1-3.3-.9-4.8 1.1-1.7 2.3-1.8 2.3-29.7 2.3-17.7 0-28.4-.4-29-1-2.1-2.1 3.2-38.1 6-41 .5-.5.9-1.8.9-3 0-1.1 1.2-5.2 2.6-9l3.5-10c1.1-3.4 4.4-9.9 10.7-20.9 9.8-17.1 30-40.2 45.7-52 10.3-7.8 17.6-12.6 19-12.6.7 0 1.8-.7 2.6-1.6 1.4-1.7 12.3-7.4 18.6-9.8 23.8-9 31.6-11.3 43.3-12.8l13.5-1.7c3.3-.5 7.5-.9 9.3-1l3.3-.1-.3 87.9zm37.7-85.4c14.5 2.1 33.2 7.1 38 10.2 1.1.7 2.7 1.3 3.6 1.3 3.9 0 28.3 14.1 41.9 24.2 9.3 6.8 33.3 31.5 38.4 39.4 2.1 3.3 5.1 7.7 6.6 9.9 5.4 8 15 27.7 15 30.9 0 1.2.3 2.6.7 2.9 1.6 1.7 4.6 12.2 9.3 32.2.5 2.2 1.2 8.1 1.6 13.1.5 7.3.3 9.2-.8 9.6-1.2.5-158.3 1.3-173.5.9l-5.3-.1V168.8l7.3.7c3.9.3 11.7 1.3 17.2 2zM274.8 282.8c1.5 1-.3 6-3.8 10.4-3.1 4.1-4 3.4-3.3-2.5.9-8.1 3-10.4 7.1-7.9zm-26.4 4.8c.9.8 1.6 2.3 1.6 3.1 0 1.3-.5 1.2-2.5-.7-1.3-1.2-2.2-2.7-1.9-3.1.7-1.2 1-1.1 2.8.7zm32.6-.6c0 .5-.5 1-1.1 1-.5 0-.7-.5-.4-1 .3-.6.8-1 1.1-1 .2 0 .4.4.4 1zm-36.8 5.5c.8 1.4.2 1.2-2.1-.9-1.7-1.7-3.1-3.4-3.1-3.9 0-1.4 3.9 2.3 5.2 4.8zm31.8 1.8c0 .7-.8 2.2-1.8 3.3a36.76 36.76 0 0 0-3.6 4.9c-1.1 1.7-2.1 2.4-2.4 1.7-.2-.6.2-1.8 1-2.5.7-.7 2.4-3 3.8-5 2.8-4.1 3-4.3 3-2.4zm39.7 2.9c-.3.7-.5.2-.5-1.2s.2-1.9.5-1.3c.2.7.2 1.9 0 2.5zm-65.3 2.2c3.4 5.3.3 3.8-3.6-1.7-2-2.9-2.1-2.9-.1-1.9 1.1.6 2.8 2.2 3.7 3.6zm69.8-2c.3 1.4.1 3.1-.3 3.8-.6.8-.9-.1-.9-2.5 0-4.2.6-4.8 1.2-1.3zm-24.2 6.1c0 .8-.4 1.5-1 1.5-.5 0-.7-.7-.4-1.5.4-.8.8-1.5 1-1.5s.4.7.4 1.5zm-42.3 7.2c-.2 1.6-.4.5-.4-2.2 0-2.8.2-4 .4-2.8.2 1.3.2 3.5 0 5zm-2.5 24.6c-.5.7-1.2 2.9-1.6 5-.7 3.5-2.9 5.8-4.3 4.3-1.2-1.2 1.8-11 4-13.4l2.2-2.4.3 2.7c.2 1.4-.1 3.2-.6 3.8zm30.8 4.8c0 .5-.4.9-1 .9-.5 0-1-.7-1-1.6 0-.8.5-1.2 1-.9.6.3 1 1 1 1.6zm59.1 21.6c.2 11.5-.3 43.7-.7 44.8-.3.8-1.3 1.6-2.2 1.8-1.4.4-1.3.6.4 1.2 1.8.6 2.2 1.7 2.6 6.3.3 3.1 0 7.1-.5 8.9-.8 2.4-.7 3.9.2 5.6 1 1.9 1 3.2.1 6.5-.7 2.2-.9 4.9-.5 5.9.8 2 .7 89.7-.2 91.9-.6 1.7-8.7 1.9-14.8.4-3.5-.9-8.2-1.7-22.8-3.7-2-.3-4-.9-4.3-1.4s-1.4-.9-2.5-.9c-3.7 0-18.5-5.5-32.9-12.3-1.4-.6-4.9-2.6-7.8-4.4s-5.4-3.3-5.7-3.3c-.9 0-15.7-10.4-19.7-13.9-17.7-15.3-36.4-36.5-43-48.6-2.8-5-10.7-21-13.5-27.4-2-4.4-5.3-15.5-6.3-21.1-.5-2.5-1.6-7-2.5-10-2.3-7.8-3.8-27.2-2.2-28.2.7-.4 41.1-.8 90-.8H341l.1 2.7zm192.5 8c-.4 6-1.1 12.4-1.6 14.3l-3.5 14c-5.3 22-15 42.2-29.7 62.5-4.3 5.9-30.1 32.2-37.4 38.1-13.8 11.1-47 27.8-60.9 30.5-2.2.4-6 1.3-8.5 1.9-4.2 1-8.1 1.7-20.2 3.6-4.2.6-4.8.4-4.8-1.1 0-4 8-14.1 23.4-29.8 13.9-14.1 25.2-19.1 32.7-14.4 1.3.8 2.4.8 4.1 0 4.7-2.3 6.5-2.7 14.8-3.4 15.1-1.3 22.1-3.4 24.1-7.1.6-1.3 3-4 5.1-6 3.4-3.2 3.8-3.9 2.8-5.7-.6-1.2-2-2.1-3.1-2.1-1.2 0-3.5-1-5.2-2.2-5.4-3.9-24.4-2.7-35.7 2.1-5.3 2.2-31.4 19.2-32.6 21.2-.3.5-1.2.9-2 .9-1.3 0-1.1-.7.7-3.8 2.6-4.4 12.9-15.2 14.5-15.2.6 0 1.9-.9 3-2.1 1-1.2 3.9-3.1 6.4-4.4 3.8-1.9 5.6-2.2 11.5-1.8 5.7.4 7.3.2 8.4-1.1.7-.9 2-1.6 2.9-1.6.8 0 2.3-.6 3.1-1.4.9-.8 7.2-3.3 14.1-5.6 13.8-4.6 15.5-5.2 21.8-8.4 4.7-2.3 10.2-7.8 10.2-10.1 0-.8 1.3-2.9 3-4.8 3.3-3.9 4.8-10.3 3.1-13.6-.9-1.6-1.6-1.9-2.9-1.2-2 1-5.6.6-12.5-1.6-4.3-1.3-5.2-1.3-8.8.1-2.1.9-5 1.6-6.3 1.6-1.4 0-4.5.9-7.1 2-6.9 3-7.9 2.6-4.9-1.7 1.3-2 2.7-4.8 3.1-6.2.3-1.4 1.4-3.4 2.4-4.4 1.1-1 1.9-2.7 1.9-3.8s1.6-5.4 3.5-9.6c3.5-7.6 4-9.9 2.9-14.1-1.1-3.8-7.3-2.4-15.1 3.4-4.4 3.3-5.7 3.1-3.7-.7 3.2-6.3-1.3-6.2-9.6.3-1.9 1.5-4.7 3-6.1 3.3s-6.6 3.6-11.5 7.3c-6.4 4.9-9.5 8-11.2 11.2-1.3 2.5-3.9 6.1-5.8 8.1-4.1 4.2-5.5 10.8-4.7 22 .5 7.3.5 7.5-3.1 12.1-2 2.7-4 4.8-4.5 4.8-.4 0-1.4 1.1-2.1 2.5-.7 1.3-2.6 2.9-4.1 3.4-1.9.7-2.9 1.7-2.9 3.1 0 1.1-1 3.7-2.3 5.8-1.2 2-4.7 8.6-7.7 14.7-2.9 6-7.1 14-9.2 17.6-2.2 3.7-5 9.8-6.4 13.5-1.4 3.8-3.2 7.6-4 8.4-1.5 1.4-1.6 1-.9-3.4.7-5.2 1.2-6.7 5.6-16.3 1.6-3.4 2.9-6.6 2.9-7 0-.5.5-1.4 1.1-2 .7-.7 1.9-3.3 2.9-6l3.3-9.4c1-2.6 2.4-6 3.2-7.5.8-1.6 1.5-3.4 1.5-4.1 0-.6.9-2.8 2-5 1.1-2.1 3.6-8.7 5.5-14.7 2.7-8.1 3.5-11.7 3-14.5-.8-5-4.5-11.3-7.5-12.9-5-2.6-13 .6-13 5.3 0 1.1-.4 2.5-.8 3.1-1.7 2-8.2 26.3-8.2 30.8 0 1.1-.5 2.8-1 3.6-.6 1-1-15.4-1-47.3V359h180.3l-.7 10.7zM463 380.6c0 1.1-2.3 5-4.3 7.1-2.4 2.7-6.5 3-7.4.6-.9-2.2 5.8-8.3 9.2-8.3 1.4 0 2.5.3 2.5.6zm-19 8.7c0 4-.5 5.3-3.5 8.5l-3.4 3.7-.1-7.7c0-7.1.2-7.8 2.7-9.8 3.3-2.6 4.3-1.4 4.3 5.3zm-12.3 8.6c.4 3.9.1 5.6-1.4 8.1l-1.9 3-2.3-5.4c-2.4-5.8-2.1-7.5 1.7-11.9 1.4-1.6 1.7-1.6 2.4-.2.5.8 1.2 3.7 1.5 6.4zm25-1.3c.9 2.4-2.3 4.4-6.9 4.4-4.4 0-4.6-.5-1.6-3.7 2.5-2.7 7.5-3.1 8.5-.7zm-36.7 3.6c0 1.3.7 3.2 1.5 4.2 2.8 3.7 1 12.7-2.6 13.4-2.1.4-5.4-9.7-4.3-13 .9-3.1 3.4-6.8 4.5-6.8.5 0 .9 1 .9 2.2zm30.6 8.5c-1.3 5.3-3.8 5.9-14.3 3.7-3.7-.7-4-1.4-1.5-3.6s4-2.6 10.6-2.7l5.8-.1-.6 2.7zm-74.6 8c1.4.9 2.8 2.2 3.2 2.7 1.1 1.5 1 13.3-.1 15.4-.5.9-1.5 3.7-2.2 6.2s-1.5 4.9-1.9 5.5c-.4.5-1.3 3-2 5.5s-1.7 4.9-2 5.5c-.4.5-1.5 3.2-2.5 6-1 2.7-2.2 5.4-2.6 5.9-.5.6-.9 1.9-.9 3.1s-.4 2.5-.9 3.1c-.4.5-1.7 3.1-2.7 5.9-1 2.7-2.6 6.5-3.6 8.3s-1.8 4.1-1.8 5.2-.4 2-1 2c-2.6 0 1.1-28.4 7.8-58.5.5-2.2 1.3-4.9 1.9-6 1.3-2.5 3.3-8.7 3.3-10.4 0-1.5 3.8-7.1 4.8-7.1.4 0 1.9.8 3.2 1.7zm34.4-1.1c.9.3 2 2.4 2.6 4.5.9 3.4.8 4.4-1.3 8.1-1.3 2.4-2.8 4.3-3.3 4.3s-1.5-1.8-2.3-4.1c-1.3-3.7-1.2-4.5.5-8.7 1-2.6 2-4.7 2.1-4.7s.8.3 1.7.6zm64.2 2.6c-1.2 6.1-6.2 10.6-8.8 8-1.3-1.3 1.7-7.8 4.6-9.7 3.5-2.5 4.9-1.9 4.2 1.7zm-39.7.4c1.2 1.1 1.2 1.6.1 2.8-1.5 1.9-3 2-6.5.4-2.9-1.3-3.2-3.3-.7-4.7 1.9-1.2 5-.5 7.1 1.5zm56.3-1c2.6 1.7-2.3 7.4-6.3 7.4-6.2 0-7.6-2.6-3.7-6.8 1.9-1.9 2.9-2.2 5.8-1.7 1.9.4 3.8.9 4.2 1.1zm-29.8 2.9c1.3 1.4 1.3 2-.6 6.3-2.6 5.9-3.6 7.2-5.8 7.2-3 0-4.1-2.4-3.4-7 .5-3.3 1.4-4.6 3.8-6.1 3.7-2.3 4.1-2.3 6-.4zm-37.3 5.6c3.9 2.7 3.7 4.6-.7 6.4-4.7 1.9-8.4 1.9-8.4 0 0-2.6 3.3-8.5 4.8-8.5.8 0 2.7.9 4.3 2.1zm20.9 8.5c-1.3 4.7-3.4 6-7.6 5-3.6-.9-3-2.8 2.9-9.2 5.2-5.7 5.2-5.7 5.5-2.9.2 1.6-.2 4.8-.8 7.1zm36.4-3.7c1.3 1.5 1.4 2 .3 2.9-4.1 3.4-9.7 3.1-9.7-.6 0-4.2 6.3-5.8 9.4-2.3zm-14.8 5.6c.9 3.6-.2 5.5-3 5.5-3.7 0-5-3-2.4-5.8 2.8-2.9 4.6-2.8 5.4.3zm-37.6 6.1c-1.2 3.4-5.9 7.4-8.8 7.4-1.8 0 3.5-10 6.7-12.7 2.5-2.1 2.6-2.1 2.9-.2.2 1.1-.2 3.5-.8 5.5zm23.8-2.4c1.7 1.7 1.5 2.3-1.3 3.6-2.9 1.3-6.5 1.6-6.5.5s4.3-5.3 5.5-5.3c.6 0 1.6.5 2.3 1.2zm-35.8 5.2c-1.2 2-2.6 3.6-3 3.6s-3.6 2.2-7.1 4.9-6.5 4.8-6.7 4.6 1.1-3.1 2.8-6.4c3.4-6.4 8-10.6 12.1-11.3 3.7-.6 4.2.6 1.9 4.6zm21.8-.1c.6.6 1.3 2.4 1.7 3.8.5 2.1.2 2.7-2 3.7-1.4.7-3.9 1.2-5.5 1.2-3.8 0-3.9-2.1-.4-6.7 2.6-3.5 4.5-4.1 6.2-2zm-25.3 10.5c-.6.4-4.3 3.9-8.4 7.8l-7.5 6.9 4.5-5.8c2.4-3.1 4.8-5.7 5.4-5.7.5 0 2.1-.9 3.5-2 2.4-1.9 4.4-2.9 2.5-1.2zm-26.7 10.4l-2 10.2c-.7 4.1-2.1 7.5-4.7 11-2 2.8-4.3 6.3-5 7.8-.8 1.6-1.8 2.8-2.3 2.8-.8 0 .6-3.3 3.8-9.3.9-1.5 2.4-5.9 3.5-9.8 1.7-6.2 6.3-16.9 7.3-16.9.2 0-.1 1.9-.6 4.2zm69.2.3c0 1.5-2.7 4.5-4.1 4.5s-1.1-2.3.7-4.8c1.6-2.3 3.4-2.1 3.4.3zm-10.1 2.3c-1.8 5.3-8.1 6.6-6.4 1.3.6-2.1 5.4-5.3 6.7-4.5.4.3.2 1.7-.3 3.2zm19.3-1.1c2.7 2.4 2.2 3.3-1.7 3.3-3.6 0-4.6-1.5-2.3-3.8 1.5-1.5 1.8-1.5 4 .5zm-29.5 2.6c-.2.6-1.5 2-3 3.1-2.2 1.6-2.9 1.7-4 .7-1-1-.6-1.7 1.7-3.6 2.8-2.2 6.1-2.4 5.3-.2zm-11.7 3c0 .2-1.6 1.8-3.5 3.7-3.8 3.7-4.7 2.8-1.4-1.4 1.6-2.1 4.9-3.6 4.9-2.3zm35.1 3.3c1.1 1.4.9 1.5-2.1 1.2-1.8-.2-3.5-.9-3.8-1.6-.6-1.8 4.3-1.5 5.9.4zm-10.1.3c0 1.4-1.8 2.3-3 1.6-.6-.4-.8-1.1-.5-1.6.8-1.2 3.5-1.2 3.5 0zm-11 1.1c0 1.2-4 3.3-4.8 2.5-.4-.4.2-1.3 1.2-2.1 2.3-1.6 3.6-1.8 3.6-.4zm-9.4 2.1c1 1.7-2.1 4.1-4.7 3.7l-2.4-.3 2.3-2.3c2.4-2.4 3.7-2.8 4.8-1.1zm-50.7 22.3c-2.1 4.6-3.6 6.3-4.6 5.3-.2-.3 1-2.8 2.8-5.6s3.5-4.9 3.7-4.7-.7 2.5-1.9 5zm-75.8-189.3c-1.3 3.9-1.5 12.9-.2 12.9 1 0 3.2-7.9 3.4-12.4.3-4-1.8-4.4-3.2-.5zm-38.7 7.3c-.8 2.1.3 4.9 1.6 4.1.5-.3 1-1.5 1-2.5 0-2.5-1.8-3.6-2.6-1.6zm115.1-87.8c-3.3 1.4-9 3.6-12.7 4.7l-6.7 2.2-.6 5c-.8 6.7-.2 94.2.7 95 .4.4 3.6-.7 7.2-2.4 11.9-5.6 23.7-7.3 36.2-5.1 5.9 1.1 16.1 4.6 17.8 6.2 1.6 1.3 4.6.9 9-1.1 3.9-1.8 6-2.4 16.8-5.1 8.7-2.2 24.8 0 33.9 4.5 5.5 2.8 7.9 2.7 7.9-.4 0-1.1.4-2.2 1-2.6.5-.3.9-18.6.8-47.1 0-45.4-.1-46.5-2-47.5-1.1-.6-3.2-.9-4.6-.6-1.8.3-5.2-.8-10.6-3.5-13.1-6.6-16.4-6.4-37.9 1.6-10.2 3.9-15.5 3.4-31.8-3-10.6-4.2-16.1-4.4-24.4-.8zm17.3 3.8c6.3 3.2 12.4 5.6 14.5 5.7 2 .1 2 .2-.5 1.2-1.6.6-2.8 1.7-2.8 2.4 0 2.3 2.8 2.6 6.2.6 1.8-1.1 4.1-1.8 5.1-1.6 1.6.4 1.7 3.2 1.7 40.4 0 27-.3 39.9-1 39.9-.6 0-4.1-1-7.7-2.1-6-2-8.1-2.1-20.8-1.6-10.3.4-15.8 1.1-20.1 2.6-3.2 1.1-6 1.8-6.1 1.7-.7-.6-1.5-72.8-.9-76.9.7-4.6.8-4.7 2.9-3.2 4 2.8 9.4 1.2 6.7-2-.9-1.1.2-2 5.7-4.8 7.4-3.8 12.8-4.6 17.1-2.3zm69.9 1.2c3.5 1.4 7.6 3.2 8.9 3.9l2.5 1.3-2.6.6c-3.3.8-2.8 3 .8 3.4 2.2.3 2.7-.1 2.7-1.8 0-1.5.5-2 1.7-1.8 3.4.6 4 4.6 3.4 22.8-.3 9.6-.3 19.3.1 21.5s.7 11.5.8 20.7c0 19.5 1 18.2-11.7 14.7-10.1-2.8-28.3-2.3-38.2 1-3.5 1.1-6.8 2.1-7.2 2.1-.5 0-.9-18.2-.9-40.4 0-36.6.2-40.4 1.6-41 .9-.4 2.4 0 3.4.9 1.7 1.5 6.1 2 7.3.8.4-.3.2-1.2-.5-2-.6-.7-.9-1.6-.6-1.8 1.2-1.3 17.5-7.4 19.6-7.5 1.3 0 5.3 1.2 8.9 2.6z"/><path d="M376 245c0 .5 1.6 1 3.5 1s3.5-.5 3.5-1c0-.6-1.6-1-3.5-1s-3.5.4-3.5 1zm11.3.2c.2.7 1.6 1.3 3.2 1.3s3-.6 3.3-1.3c.2-.8-.8-1.2-3.3-1.2s-3.5.4-3.2 1.2zm8.7-.2c0 1.3 4.8 3.2 6.1 2.4 2.3-1.4.8-3.4-2.6-3.4-1.9 0-3.5.5-3.5 1zm-28.6 17.5c-.4.9-.2 2.1.4 2.7 1.5 1.5 5.4-.1 5-2-.4-2.3-4.6-2.8-5.4-.7zm9.2-.6c-1 1.5.5 4.1 2.3 4.1 2 0 4.1-1.9 4.1-3.7 0-1.5-5.6-1.8-6.4-.4zm10.4.5c0 1.2 1 1.6 3.6 1.6 4.5 0 4.2-2.4-.4-2.8-2.4-.2-3.2.1-3.2 1.2zm9.6-.5c-.3.5.2 1.9 1.2 3.1l1.7 2.2 1.9-2.1c1-1.1 1.5-2.5 1.1-3-.8-1.3-5.2-1.5-5.9-.2zm10.8.6c-.7 1.8.2 4.5 1.5 4.5 1.8 0 5.4-3.7 4.7-4.8-1-1.7-5.6-1.5-6.2.3zm-39.7 17.1c-1.1 1.2.3 2.4 2.9 2.4 1.6 0 2.4-.5 2.2-1.3-.5-1.3-4-2.2-5.1-1.1zm8.9.3c-.3.4.3 1.6 1.4 2.6 1.6 1.5 2.2 1.5 3.5.5 2.5-2.1 1.8-4-1.4-4-1.7 0-3.2.4-3.5.9zm11.1-.3c-1.2 1.3.4 2.4 3.4 2.4 2 0 2.9-.4 2.7-1.3-.5-1.3-5-2.2-6.1-1.1zm8.8.3c-.8 1.3 2.4 2.9 4.6 2.4 3.1-.8 2.3-3.3-1-3.3-1.7 0-3.2.4-3.6.9zm9.2-.3c-1.6 1.7-.4 2.4 3.9 2.4 3.2 0 4.4-.4 4.2-1.3-.5-1.3-6.9-2.2-8.1-1.1zm-39.1 18.3c-.3.5.1 1.2 1 1.5 1.9.7 6.4-.3 6.4-1.5s-6.7-1.2-7.4 0zm9.7.3c.2.7 1.9 1.3 3.7 1.3s3.5-.6 3.8-1.3c.2-.8-.9-1.2-3.8-1.2s-4 .4-3.7 1.2zm10.7-.3c0 1.6 2 2.3 4.6 1.7 3.6-.9 2.9-2.6-1.1-2.6-1.9 0-3.5.4-3.5.9zm9.3.3c.2.7 1.6 1.3 3.2 1.3s3-.6 3.3-1.3c.2-.8-.8-1.2-3.3-1.2s-3.5.4-3.2 1.2zm9.7-.2c0 1.2 4.5 2.4 6.5 1.6 2.9-1.1 1.5-2.6-2.5-2.6-2.2 0-4 .4-4 1zm-39 17c-1.3.9-1.3 1.1 0 2 2 1.3 5.7 1.3 6.5-.1.9-1.3.6-1.6-2.5-2.3-1.4-.4-3.2-.2-4 .4zm9.4.1c-.3.6 0 1.5.7 2 2.1 1.4 5.3.6 5.7-1.4.3-1.3-.3-1.7-2.7-1.7-1.6 0-3.3.5-3.7 1.1zm11 0c-.7 1.1 1.2 2.9 3.1 2.9s3.8-1.8 3.1-2.9c-.4-.6-1.8-1.1-3.1-1.1s-2.7.5-3.1 1.1zm9.6-.1c-1.3.9-1.3 1.1 0 2 .8.5 2 1 2.5 1 .6 0 1.7-.5 2.5-1 1.3-.9 1.3-1.1 0-2-.8-.5-1.9-1-2.5-1-.5 0-1.7.5-2.5 1zm9 0c-1.3.9-1.3 1.1 0 2 3 2 9 .5 7.6-1.9-.9-1.4-5.6-1.4-7.6-.1zm34.5-70c-.7 1.2 3.9 2.4 6 1.6.8-.3 1.5-1 1.5-1.6 0-1.3-6.7-1.3-7.5 0zm11.5 0c0 .5 1.4 1 3 1 1.7 0 3-.5 3-1 0-.6-1.3-1-3-1-1.6 0-3 .4-3 1zm8 0c0 1.2 4.5 2.4 5.9 1.5 2.2-1.3 1-2.5-2.4-2.5-1.9 0-3.5.4-3.5 1zm-28.4 16.8c-.2.4.4 1.9 1.5 3.2l1.9 2.5 2-2.4c1.1-1.2 1.7-2.7 1.4-3.2-.6-1.1-6.1-1.2-6.8-.1zm9.4.2c-2.6 1.7.4 2.6 8.7 2.5 4.6 0 7.8-.5 8-1.1.7-2.1-13.8-3.3-16.7-1.4zm20.2.7c.2 1.2 1.2 1.8 2.8 1.8s2.6-.6 2.8-1.8c.3-1.3-.3-1.7-2.8-1.7s-3.1.4-2.8 1.7zm10.5-1c-1 1.6 1 3.5 3.4 3.1 3.3-.4 3.1-3.2-.3-3.6-1.4-.2-2.8.1-3.1.5zm-39.3 18.4c-.3.6.1 1.8 1 2.7 1.4 1.4 1.7 1.4 3.5-.3 1.1-.9 1.8-2.2 1.5-2.6-.7-1.3-5.2-1.1-6 .2zm8.2-.2c-.7 1 1.7 2.1 4.5 2.1 2.3 0 2.5-1.5.3-2.4s-4.2-.7-4.8.3zm11.4.6c0 1 1 1.5 3 1.5s3-.5 3-1.5-1-1.5-3-1.5-3 .5-3 1.5zm9.2-.8c-2 .8-.3 2.3 2.8 2.3 3.6 0 4.7-1.6 1.7-2.4-2.5-.6-2.7-.6-4.5.1zm11 0c-2 .8-.3 2.3 2.8 2.3 3.3 0 4.8-1.5 2.4-2.4-1.8-.7-3.3-.7-5.2.1zm-40 18.5c.5 1.5 5.7 1.8 6.1.3.1-.6-1.3-1.1-3.2-1.3-2.4-.3-3.2 0-2.9 1zm9.1 0c.2.7 1.9 1.3 3.7 1.3s3.5-.6 3.8-1.3c.2-.8-.9-1.2-3.8-1.2s-4 .4-3.7 1.2zm9.7-.2c0 1.2 4.5 2.4 5.9 1.5 2.2-1.3 1-2.5-2.4-2.5-1.9 0-3.5.4-3.5 1zm9-.1c0 .5.7 1.2 1.6 1.5 2.1.8 6.5-.4 5.8-1.5-.7-1.2-7.4-1.2-7.4 0zm11.6 0c-.3.5.1 1.2 1 1.5 2 .8 5.4-.2 5.4-1.5 0-1.2-5.7-1.2-6.4 0zm-39.2 16.6c-.8 2.1.4 3.5 3.1 3.5 3.1 0 3.9-1.4 1.9-3.4-1.9-2-4.3-2.1-5-.1zm9.6 0c-2.3 2.8 1.8 4.7 6.4 2.9 2.3-.9 2-1.9-.9-3.2-3.3-1.5-4-1.5-5.5.3zm29.3 0c-1 2.8 4.7 5 6.3 2.4.8-1.3-.3-2.4-3.4-3.4-1.6-.4-2.4-.2-2.9 1zm-19.8.6c-.4.6-.1 1.5.6 2 2 1.3 5.4.6 5.4-1.1 0-1.8-5-2.6-6-.9zm10-.2c-1 1.7.4 3.1 3.1 3.1 1.9 0 2.5-.5 2.2-1.8-.4-1.9-4.3-2.9-5.3-1.3zm-192 47c-.6.5-2.1 1.1-3.5 1.3s-2.5 1-2.5 1.8c0 .9.8 1.4 2 1.2 1.1-.1 4.1-.3 6.8-.2 5.4 0 6-1.3 1.7-3.5-3.4-1.8-3.3-1.8-4.5-.6zm9.5 6c0 2.6 3.9 9.1 5.4 9.1.6 0 1.1 1.4 1.1 3.2 0 1.7.6 3.3 1.3 3.5 2.4.9 1.2-4.4-2.3-10.3-1.9-3.2-3.5-6.1-3.5-6.6 0-.4-.4-.8-1-.8-.5 0-1 .9-1 1.9zm-19.2 1.8c-1.5 1.6-3.7 5-4.9 7.8l-2.7 5.7c-.9 1.9 1.9.5 4.7-2.2 2.6-2.6 3.4-2.9 5.1-2 2.6 1.4 4.3.4 3.5-2-.3-1-.1-2.1.5-2.5 1.5-.9 1.3-1.9-1.3-4.9l-2.3-2.6-2.6 2.7zm7.7 10.3c-.3.5-1.5 1-2.5 1-2.4 0-5.4 3-4.2 4.2.6.6 2.1.2 4.1-1 1.7-1 2.8-2.2 2.3-2.6-.9-1 4.7.2 7.6 1.6 1.9 1 2.2 1.9 2.2 6.5 0 5 1.1 7 2.3 3.9.8-1.9-.4-9.6-1.4-9.6-.5 0-.9-.7-.9-1.5 0-2.8-8-4.9-9.5-2.5zm-36.2 6.8c-1.7.9-3.4 2.5-3.6 3.4-.3 1-1.2 1.8-2 1.8-1.6 0-5.5 10.5-4.3 11.7.3.3 1.6.2 2.9-.4 1.2-.6 3.4-1.5 4.9-2.1 3.1-1.3 4.7-5.6 3-8.2-1.5-2.5.4-4 5.1-4 3.2 0 4.5.6 7.1 3.5 1.8 1.9 3.8 3.5 4.4 3.5.7 0 1.2 1.1 1.2 2.5s.5 2.5 1 2.5c3.8 0-2.2-10.3-8-13.9-4.1-2.5-7.3-2.6-11.7-.3zm21.4-1.2c-.4.4-.7 1.8-.7 3.1 0 1.7.5 2.4 1.7 2.1.9-.2 1.8-.8 2-1.3.5-1.5-2.1-4.8-3-3.9zm4 0c-.8.8.1 2.4 1.4 2.4.5 0 .9-.7.9-1.5 0-1.5-1.2-2-2.3-.9zm31.1 10.9c-.3 7-.9 12-1.6 12.7-1.6 1.6-1.5 5.8.1 5.8 1.5 0 3.2-4.5 4.2-10.7.8-4.9-.4-19.3-1.5-19.3-.4 0-.9 5.2-1.2 11.5zm31.7 2.6c-.4.5-1.9 1.5-3.3 2.1-2.5 1-2.6 1.1-.7 1.8 1.1.5 3.1.9 4.4.9 2.6.1 8.4 1.7 11.3 3.2 2.3 1.2 4.5 1.1 5.3-.1.3-.6-.4-1.5-1.7-2-1.3-.6-4.3-2.3-6.8-3.9-4.8-3.1-7.5-3.8-8.5-2zm-42.5 4.4c0 1.4.5 2.5 1 2.5.6 0 1-1.1 1-2.5s-.4-2.5-1-2.5c-.5 0-1 1.1-1 2.5zm-51.3 3c-2.8 3.4-2.8 3.5-.8 3.5 1.2 0 4-.9 6.2-2.1 2.7-1.4 5.5-1.9 8.3-1.7 3.1.2 4.1-.1 4.1-1.2 0-1.2-1.6-1.5-7.5-1.7-7.4-.2-7.5-.2-10.3 3.2zm27-2.9c-1 1.1-.8 5.4.2 5.4 1.4 0 2.5-4 1.4-5.1-.5-.5-1.2-.6-1.6-.3zm50.9 2.4c-5.7 3.3-12.5 9.5-13.7 12.7-.5 1.4-1.7 2.3-2.9 2.3-1.1 0-2 .5-2 1.2 0 .9-.3.9-1.2 0-1.6-1.6-2.8-1.5-2.8.3 0 .9-1.1 2-2.4 2.5s-2.7 1.4-3.1 1.9c-.3.6-1.4 1.1-2.4 1.1s-3 .9-4.4 2c-3.8 3-5.1 2.4-2.4-1.3 1.4-1.7 2.8-4.2 3.2-5.5.3-1.2 1.1-2.2 1.6-2.2 1 0 5.9-9.6 5.9-11.7 0-.7-.4-1.3-1-1.3-1.2 0-7.1 11.5-6.4 12.3.3.3-.6 1.3-2 2.2-1.4 1-2.6 2.1-2.6 2.5 0 .5-1.2 2.7-2.7 4.9-2.6 4-5.2 5.4-5.4 2.8-.1-.6-.2-2-.3-2.9-.1-2-2.1-2-2.1-.1 0 .7-.6 1.8-1.3 2.5-1.3 1.3-1.7 4.8-.4 4.8.4 0 1.3-.5 2-1.2.9-.9 1.2-.6 1.2 1.4 0 3.2-2.5 5.6-3.4 3.3-.9-2.5-2.1-1.7-3.7 2.2-.8 2-1.9 4.6-2.6 5.7-5.4 9.4-6.4 12.6-3.9 12.6s7.7-7.7 8.6-12.7c.5-3.5.8-4 .9-1.8.1 2.9.2 2.8 7.9-4.8 6.1-6.1 9.6-8.6 16.9-12.2 5.1-2.5 9.6-4.5 10-4.5.5 0 2.7 1.3 4.9 2.8 2.3 1.6 6.7 3.4 9.8 4.2 3 .7 6.3 2.1 7.2 3.2 1.8 1.8 6.4 2.5 6.4.9 0-1.5-6-6.1-8-6.1-1 0-2.2-.5-2.5-1-.3-.6-1.7-1-3.1-1-1.3 0-3.4-1.1-4.6-2.5s-3-2.5-4-2.5-1.8-.4-1.8-.9c0-1.7 13.2-13.2 17.1-14.9 3.8-1.6 4.7-3.5 1.8-3.9-.8 0-3.6 1.1-6.3 2.7zm-60.8 12.2c-.3 6.3-1.1 12-2.2 14.8-2.9 7.4-3 8-1.3 8 .8 0 1.8-1.2 2.2-2.7.3-1.5 1.5-4.5 2.6-6.7 2.7-5.7 2.7-23.6-.1-23.6-.4 0-1 4.6-1.2 10.2zm-25.1-7.5c-.4.3-.7 1.5-.7 2.5 0 2.1 3.6 2.5 4.3.5.9-2.7-1.7-5-3.6-3zm36.9 1.9c-.8 2-.8 9.8 0 11.8 1.4 3.5 2.4 1.2 2.4-5.3 0-6.7-1.1-9.8-2.4-6.5zm28.6 5.5c.2.6.8 1 1.3 1s1.1-.4 1.3-1-.4-1.1-1.3-1.1-1.5.5-1.3 1.1zm27.9 22.5c-2.2 2.8-2.3 4.5-.4 5.1 1.5.5 4.6-5.8 3.4-7-.5-.5-1.7.3-3 1.9zm-77.6 4.4c-1 1.1-1.5 2.3-1.2 2.7.8.7 4.7-2.5 4.7-3.9s-1.6-.9-3.5 1.2zm98.6 3c-1.9 1.6-4.7 3.2-6.2 3.5-1.6.4-3.1 1.1-3.4 1.6-.4.5-3 .9-6 .9-4.8 0-5.6.3-7.4 2.9-1.2 1.6-2.1 3.5-2.1 4.3s-.5 1.9-1.1 2.5c-.7.7-.7 1.3-.1 1.7 1.3.8 4.2-2 4.2-4 0-1.8 5.8-4.4 9.8-4.4 3.9 0 8.9-2.6 13.5-6.8 5.8-5.6 4.8-7.3-1.2-2.2zm-25-.7c-1.5 1.5-1.4 5.7.2 5.7.7 0 1.8-.5 2.5-1.2.8-.8 1.5-.8 2.5.1 1.8 1.4 4.4.5 5.8-2 1.1-2.2.6-2.5-5.8-3.2-2.3-.3-4.6 0-5.2.6zM208 458.4c0 2.6.2 2.7 4.8 2.2l6.8-1.1c3.2-1 3.9 1.3 1.5 4.6-1.1 1.5-2.1 3.2-2.1 3.7s-.7 1.5-1.5 2.2c-1.6 1.3-2 7.6-.6 9.8.6 1.1 7.6 1.5 32.7 1.8 17.6.3 34.9.9 38.6 1.5 7.2 1 18.1.2 17.2-1.2-.3-.5-4.2-.9-8.7-.9h-8.2l5-2.5c7.1-3.4 13.3-9.1 11.8-10.6-.9-.9-1.7-.8-3.5.5-1.3.9-3.8 2.8-5.7 4.1-5.9 4.3-9.1 4.7-43.2 5.1-26.7.3-32.8.1-33.2-1-.6-1.6 3.8-12.9 5.3-13.4.5-.2 1-1 1-1.7 0-.8.8-1.8 1.7-2.4 3.1-1.7.6-2.4-9.7-2.9l-10-.5v2.7zM308 469c0 .5.9 1 2 1s2-.5 2-1c0-.6-.9-1-2-1s-2 .4-2 1zm4 4a1.08 1.08 0 0 0 1 1c.6 0 1-.5 1-1a.94.94 0 0 0-1-1c-.5 0-1 .4-1 1zm-70.7 13.3c-1.3 2.2 2.3 3.2 12.2 3.5 10.3.4 13-.4 8.8-2.6-2.4-1.3-20.3-2-21-.9zm45.3 5.8c-3 1.9 0 2.9 9 2.9 4.5 0 9.6.5 11.3 1.1 4 1.4 6.5-.2 4-2.6-2-2-21.5-3.1-24.3-1.4zM264 502c0 .6 5.2 1 13.6 1 8.7 0 13.3-.4 12.9-1s-6-1-13.6-1c-7.9 0-12.9.4-12.9 1zM101.5 231.5c-.5.2-2.1.6-3.5.9-3 .6-4.2 2.9-10.8 20.1-5.5 14.2-8.2 23-8.2 26.3 0 1.1-.4 2.4-1 2.7-.5.3-1 1.7-1 3s-.4 3.4-.9 4.7-1.7 5.7-2.5 9.8c-2.2 9.8-3.6 15.1-4.7 17.3-1.4 2.5-.3 3.7 3.4 3.7 3.8 0 7.7-2.4 7.7-4.8 0-.9.7-3.6 1.7-6 1.2-3.2 2-4.1 3.2-3.6.9.3 3.5.9 5.9 1.1 2.3.3 4.2.7 4.2.8s-.7 1.5-1.5 3.1-1.2 4-.8 5.2c.4 1.8 1.2 2.2 4.7 2.2 4 0 16.7-4.6 21.1-7.6 1.1-.8 2.9-1.4 4-1.4 2.8 0 8.5-3.7 8.5-5.4 0-.8-.7-2.1-1.5-3-1.8-1.8-4.5-.9-10.9 3.6-5.3 3.8-8.1 3.7-9.5-.3-1.5-4.3-1.4-5.9.5-5.9 1.8 0 4.4-5.8 4.4-10v-3l7.3.6c6.5.6 7.4.4 9.1-1.5 1.1-1.1 2.5-2.1 3.2-2.1a2.42 2.42 0 0 0 1.9-1c1-1.5-4.5-3.7-16.1-6.3-6.1-1.4-14.3-3.5-18.2-4.6l-7.2-2.2v-4.4c0-4.2 3.4-12 4.9-11.3.4.2 3.8 1.6 7.7 3.2 3.8 1.5 10.7 4.5 15.4 6.6 12.4 5.6 13.3 5.7 18.1 2.5 5.3-3.8 4.9-4.6-4.1-8.3l-7.5-3.2c-2.7-1.2-7.9-3.3-11.5-4.7-10.3-4.1-12.5-5.6-12.8-8.8-.2-1.5.1-3.2.7-3.8 1.7-1.7 1.3-4.7-.6-4.6-1 0-2.2.2-2.8.4zM98 280.6c4.4.8 6.4 4.4 5.6 9.8-.4 2.4-1.5 5.1-2.5 6-1.6 1.4-2.2 1.5-6.9.1-8.4-2.5-8.5-2.8-5.6-14.8.7-3 .1-2.9 9.4-1.1zm504.4 67.1c-1.1.2-4.7 3.1-7.9 6.3l-5.9 5.9v8.8c-.1 5.2.4 10.1 1.2 11.9 1.8 4.1 8.4 8.8 15.4 10.8 5.5 1.7 5.6 1.7 10.9-.9 6.8-3.3 8-4.2 10.6-8.5 4.4-7.4 3.8-19.9-1.3-26.3-4.3-5.4-15.6-9.3-23-8zm-530.6 2.6c-10.5 6.5-13.9 19.6-7.9 30.8 3.8 7.2 9.2 10.3 17.6 10.1 7-.1 10-1 14.3-4.7 4.9-4.1 8.9-14.8 7.7-20.5-1-4.5-8.1-14.7-11.4-16.4-4.7-2.5-15.7-2.1-20.3.7zm514 65.4c-1.4 1.7-2.7 4-7.7 14.3-3.1 6.4-8.3 15.4-10 17.4-.8 1-2.4 3.5-3.5 5.6-1.2 2.1-4.3 7.1-6.9 11l-4.8 7.3-3.4-3.3c-4-3.9-8-3.6-9.1.6-.9 3.4 1 5.3 3.6 3.6 1.6-1 2.4-1 4 0 2.4 1.5 2.5 3.1.5 4.8-2.9 2.4-.7 7.8 2.6 6.5 1.8-.7 4.4 7.4 3.6 11.3-1.8 8.8-3.6 14.2-4.8 14.2-1.6 0-1.5-1.6.2-7.2 1-3.4 1.6-6.5 1.3-6.9-.3-.5-1.7-.6-3.2-.3-3.9.8-6.3-2-3.9-4.3 1.5-1.5 1.7-1.5 2.3 0 .9 2.4 2.4 2.1 2.4-.4 0-8.4-7.4-7.3-9.6 1.5-.3 1.4-1 2.6-1.6 2.6-1.3 0-8.8 6.1-8.8 7.3 0 .5-2 3.2-4.5 6-5.3 6.1-5.8 8.7-1.6 8.7 2.5 0 2.9.4 3.5 3.7.3 2.1.6 5.4.6 7.3.1 4.2 2 7 4.7 7 1.6 0 2.2-.8 2.6-4.1.9-6.6 5.7-9.5 5.7-3.4 0 2.8 1.2 3.8 3.4 2.9 1.8-.7 2.2-5.9.6-6.9-.5-.3-1-1.7-1-3s-.4-2.7-1-3c-.5-.3-1-1.9-1-3.4 0-1.6-.7-4.7-1.5-7.1-1.1-3.1-1.2-4.7-.4-6.2 1-1.9 1.2-1.9 2.7-.4 1 .9 2.2 4 2.7 6.8.8 4.1 1.6 5.6 3.7 6.7 2.4 1.4 2.8 1.4 4.7-.3 1.1-1 2.6-3.4 3.3-5.2 1.2-3.3 3.1-4.4 4.3-2.4.4.6 1.1.8 1.6.5 1.1-.8 1.2-7.8.1-9-.5-.6-2.1-5-3.6-9.9-2.7-8.6-2.8-9-1.1-12.5l1.7-3.5 1.2 3c.7 1.6 1.7 4.2 2.2 5.9.8 2.4 1.6 3.1 4.1 3.3 2.4.2 3.4-.2 4.3-1.7 2-3.9 6-1.4 6 3.8 0 2.8 1.9 3.6 3.6 1.5 1.4-1.8 1.5-1.6 1 1.5-.8 4.2-3 6.9-6.8 7.9s-3.6 2.6.5 3c3.9.4 7.8-2.3 10.1-7 3-5.9 1.2-12.5-3.6-13.5-2.2-.4-3-1.3-3.5-3.5-.3-1.5-1-3.1-1.4-3.4-.5-.3-.9-1.5-.9-2.7 0-2-1-5.2-3.7-11.7-1.2-2.9-.2-7.4 2.3-10.1 2.9-3.2 3.6-2.2 3.2 4.2-.3 5.6-.1 6.3 2.3 8.1 1.4 1.1 4.4 2.2 6.7 2.5 3.5.5 4.2.3 4.2-1.1 0-1.1-1.5-2.4-4-3.3-3.6-1.5-4-1.9-4-5.1 0-2-.7-6.1-1.6-9.2-1.5-5.4-1.5-5.9.4-9.5l1.9-3.9 1.7 2.6c1 1.5 2.8 5.7 4.2 9.4 2.2 6.3 3.7 8.3 5.7 8.4 1.7 0 .4-6.9-2.9-15.9-2.7-7.1-3.6-11-3.5-14.9.2-5.5-.6-6.3-3.1-3.5zm-16.5 47.8c1.2 3.5 1.3 5.3.6 7.8-.6 1.7-1.3 3.8-1.5 4.6-.8 2.6-3.5-4-3.7-9-.2-3.8 1.3-7.9 2.8-7.9.2 0 1 2 1.8 4.5zm-33.7 47c.5 3.4.2 5.1-1.1 7.2l-1.7 2.6-1.4-3.3c-1.8-4.3-1.8-6.9.3-9.2 2.4-2.7 3.1-2.2 3.9 2.7zM87 418.9c-1.4 2.7-1.3 10.4.2 11.9.9.9.7 1.7-1.1 3.6s-2.1 3.1-1.6 6.2c1.2 7.4 1.5 8.4 3.1 8.4 3.1 0 6.1 12.8 3.4 14.5-.8.5-.8 1.1 0 2 .9 1.1.5 1.4-1.7 1.7-2.7.3-2.8.5-3.1 6.9-.3 7.1 1.1 12.3 3.1 11.7 1.6-.6 2.2-5.7.8-7.1-.6-.6-1.1-2-1.1-3 0-1.5.3-1.7 1.3-.8 1.8 1.4 2.7.4 2.7-2.9 0-1.4.4-3 .9-3.6.5-.5 2.1-4.5 3.6-8.9s3.3-9.1 4-10.4l1.3-2.5 1.5 3c1.4 2.8 1.4 3.6-.7 10.9-2.2 7.5-2.4 12.5-.5 12.5.5 0 .9 1.4.9 3.2 0 1.9.9 4.1 2.2 5.5 1.8 2 2 2.6 1 4.8-1 2.1-.9 3.2.4 5.7.9 1.6 1.9 2.6 2.3 2.2.4-.5 1.7-4.9 3-9.8 2.4-9.6 4-12.9 5.7-11.8.6.4 2.4 2.7 3.9 5.2s4.7 6.8 7.1 9.7c3.3 3.8 4.4 5.9 4.4 8.5l-.1 3.3-2.7-3.3c-1.5-1.8-3.3-3.2-4.1-3.2s-2.9-1.8-4.8-4-3.9-4-4.4-4-.9 3.1-.9 7c0 7 .5 8.1 2.8 5.8 2-2 2.6-.1 3.3 9.3.4 6.2 1.2 9.5 2.3 10.8 2 2.2 1.2 3.1-3.1 3.1-2.6 0-3.3.4-3.3 1.9 0 2.5 3.6 5.1 7.1 5.1 2.1 0 2.9.7 3.8 3.1.6 1.7 1.5 2.8 2.1 2.4 1.3-.8 1.7-16.5.4-21.5l-.6-2.5-1.8 2.5c-1.5 1.9-2 2.2-2.4 1-1.3-4.2-1.5-7.1-.6-9.5.9-2.3 1.3-2.5 2.5-1.5.8.7 2.1 2.4 2.8 3.9 1.8 3.7 4.5 3.9 5.3.4.9-3.7 2.2-5.3 4.5-5.3 1.1 0 1.9-.2 1.9-.5 0-1.7-10.6-17.6-18-27-2.2-2.8-5.3-7.5-7-10.6-1.6-3.1-3.7-6.2-4.5-6.9s-1.5-1.8-1.5-2.5c0-.6-.9-2-2.1-3.1-1.1-1-4.3-6-7.1-11.1-2.7-5.1-5.4-9.3-6-9.3-.7 0-.8 2.5-.4 7.2.6 5.8.4 7.7-.8 9.3-1.6 2-1.6 2-3.1.1-1.7-2.3-1.8-4.5-.5-10.1 1.2-5.3.3-8.8-2.1-8.2-2.7.7-2.5-3 .1-3.8 3.4-1.1 2-7.5-1.7-7.5-.7 0-1.7.9-2.3 1.9zm25.1 44.9c.9 3.1.8 4.5-.5 7.5-1.6 3.9-2.5 4.3-5.6 2.7-1.8-1-1.8-1.1.2-6.2 1.1-2.9 2.2-6.1 2.5-7 .8-2.5 2.1-1.3 3.4 3z"/><path d="M113.4 441.1c1.3 11 1.8 13.9 2.6 13.9 3.4 0 1.7-17.6-1.9-18.8-1.1-.4-1.2.6-.7 4.9zm-20.9 38.7c-.6 2.2.3 5.2 1.6 5.2 1.2 0 1.2-5.7 0-6.5-.5-.3-1.2.3-1.6 1.3zm1.1 8.1c-.8 1.2 1.4 7.1 2.5 7.1 1.6 0 2.2-3 1.1-5.6-1.2-2.5-2.7-3.1-3.6-1.5zM148 508c0 1.8 2.4 5.4 7.3 10.7 2.6 2.8 4.7 5.9 4.7 6.7 0 3-2.3 2.9-4.9-.3-2.5-3-5.4-4-6.5-2.2-.3.5 0 3.2.7 6 1 4.2 1.5 5.1 3 4.7 1.1-.3 2.4.5 3.4 2 1.3 2.1 1.4 3.1.4 6.3-1.4 4.7-1.5 13.1-.1 13.1 1.5 0 3.6-5 5-12 .6-3.6 1.9-8 2.7-9.8 1.5-3.5 4-3.9 3.6-.6-1.2 9-1.7 11.4-2.9 14.7-2.4 6.4-1.5 18.1 1.3 15.4.8-.9 2.6-8.9 5-22.5.6-3.8 2.1-4.1 5.1-.9 1.4 1.5 2.2 3.6 2.2 5.9 0 3.3-.3 3.7-2.7 4-2.2.2-2.7.8-2.5 2.3 2.5 15.7 2.5 15.8 6.3 10.3 2.2-3.2 2.9-5.5 2.9-9.1 0-5.5 2-7.1 5.1-4.1 2.4 2.5 2.5 5.1.6 14.4-2.4 11.6-2.6 18-.3 18 1.9 0 2.8-2.3 3.7-9.5l1.5-10.5c.9-6.3 1.8-6.9 5.4-3.5 3.4 3.3 3.9 6.5 1 7.2-5.7 1.5-1.5 23.3 4.6 23.3.9 0 1.4 1.1 1.4 3.4 0 3.6 2.1 6.2 4.3 5.3 1.4-.5 2-4.1 3.6-19.7.4-4.8 1-6.5 2.1-6.5 1.2 0 1.5 1.9 1.5 11.1 0 11 0 11.3 3.1 15 5.7 7.1 7.6 5.7 9.3-7.1.6-4.4 1.8-8.6 2.6-9.4 2.9-2.9 3 .7.9 23.8-.6 6.9.4 9.3 3.1 7.1 1.1-.9 1.5-3.1 1.5-7.8 0-3.5.4-8.1 1-10.1.5-2 1.2-4.8 1.4-6.2.4-1.8 1.2-2.6 2.3-2.5 1.4.1 1.8-.6 1.6-2.8-.3-4.1-2.4-6-12.2-10.9-8-4-21.7-12.8-33.7-21.5-7.8-5.6-18.5-15.2-32.8-29.4-11.5-11.4-16.6-15-16.6-11.8zm60.4 58.2c1.2 3.3 0 9.1-2.4 12-1.5 1.9-2.2 2.1-3.7 1.2-2.7-1.6-2.9-6-.4-6.7 1.4-.3 2.1-1.3 2.1-2.9.1-6.5 2.6-8.6 4.4-3.6zm16.6 15c0 7.5-.8 10.8-2.5 10.8-2.2 0-2.6-3.2-1.4-10.2 1.6-9.1 3.9-9.4 3.9-.6zm273.5-48c-1.1.6-4.7 3.6-8 6.7a137.26 137.26 0 0 1-10.3 8.6c-2.4 1.6-5.6 3.9-7 5.1-11.7 9.1-41.6 26-51.2 28.9-1.4.4-5.6 2.1-9.4 3.7-6.1 2.7-7 2.8-8.4 1.5-3.6-3.7 2.5-10.6 6.9-7.9 2.2 1.4 6.5 1.6 7.3.3 1.3-2-8.2-7.1-13.1-7.1-4.3 0-5.3 1.7-5.3 8.9 0 3.7-.4 7.2-.8 7.8-1.7 2.7-20.9 6.7-42.5 8.8-17 1.6-19.7 1.2-19.7-3.4 0-4.2 2.1-5.6 5.9-3.7 1.6.9 3.4 2.2 3.8 3s1.7 1.6 2.7 1.8c3.7.6 2.7-2.4-2.3-7.3-5-4.8-8.7-6.1-11.7-4.1-1.9 1.2-3.4 4.9-3.4 8.1 0 1.7-.7 4.6-1.6 6.4-1.5 3.2-1.5 3.6.1 6.1 1.4 2.1 1.7 4.7 1.6 14.5-.2 8.9.2 12.9 1.4 15.7.8 2 1.9 3.4 2.3 3s.9-7.8 1.2-16.4l.5-15.7 3 .2c1.7.2 3.5.3 4 .3.6.1 2.9-.2 5.3-.6 4.1-.6 4.2-.6 4.2 2.2 0 2.2-.3 2.5-1.2 1.6-.7-.7-2.6-1.2-4.3-1.2-2.7 0-3.4.6-5.3 4.5-2.7 5.6-2.7 6.2-.2 11.9 2.3 5.5 6 7.7 9.2 5.7 2.2-1.4 3.4-.7 4 2.4.2 1.2 1.1 2 2.3 2 2.2 0 2.1 1.1 1.4-18.7-.2-5.8-.1-10.9.3-11.4 1.4-1.3 3.5 1.6 4.2 5.8.4 2.5 1.7 5.1 3.1 6.4 2.6 2.4 3.2 4.8 1.6 5.9-.5.3-1.2.1-1.6-.5-.3-.5-1.5-1-2.6-1-1.5 0-1.9.7-1.9 3.4 0 3.3 2.1 6.6 4 6.6.5 0 1.8 2 2.9 4.5 3.2 7.3 5.8 4.9 2.7-2.5-1.2-3-1.1-3.7 1.3-8.4 2.2-4.3 2.6-6.3 2.6-13.5v-8.4l3.5-1.3c1.9-.7 5.4-1.3 7.8-1.3 5.8-.1 5.6 2.3-.3 3.8-3 .7-5.1 2-6.2 3.8-3.4 5.1-1.2 14.2 4.2 17.7 2.6 1.7 2.8 1.7 5.1-.5 1.8-1.7 2.4-1.9 2.4-.8 0 .9.7 2.4 1.5 3.5 1.5 1.9 1.5 1.9 3.1-.1 1.2-1.5 1.4-3.3 1-7.5-1.6-13.7-1.7-16.8-.8-20.5l.9-4 1.3 3c.7 1.6 1.6 7.5 2.1 13 1.1 13 1.6 14.7 3.7 14.3 1.9-.4 2-2.3.4-17.3-1.3-12.6-1-13.3 7.4-16.7 6.4-2.6 7-2.7 8.2-1.1 2.2 3.1 1.5 4.2-2.3 3.6-5.9-.9-7.5 1.4-7.5 10.7 0 6.2.4 8 1.8 9.3 2.4 2.2 6.6 2.2 8.7.1 1.5-1.5 1.7-1.5 2.2.5.3 1.1 1.3 2.1 2.3 2.1 2.3 0 3-4 2-10.5-.5-2.8-.9-8-.9-11.6-.1-7.4 1.4-10.2 6.1-11.3 3.5-.8 4.7 1.1 1.4 2.4-1.4.5-3 1.8-3.5 2.9-1.3 2.3-1.4 7.8-.3 8.5.5.3 1.4 3 2.1 6 1.5 6.7 5.1 11 8.4 10 1.2-.4 2.4-1.1 2.6-1.7.9-2.3 5.1-5.7 7.2-5.7 1.9 0 2.1-.4 1.5-3.8-.5-3.7-2.5-20.6-2.9-25.2-.1-1.9.3-2.5 1.8-2.5 1.8 0 2.1 1.1 3.2 9.5 2.1 15.6 2.6 17.5 4.8 17.5 2.3 0 2.4-2.7.5-14l-1.7-12.1-.5-5.1 6.3-4.3c3.5-2.4 7.5-5.1 8.8-6.2 3-2.3 4.7-2.3 5.6-.1.4 1.2-.1 2.4-1.7 3.5-1.3 1-3 2.5-3.9 3.3s-2.7 1.5-4 1.5c-4 0-4.9 1.8-4.9 9.7 0 10.3 2.9 15.3 8.9 15.3 2.9 0 2.7-.7-1.9-6.1-4.4-5.2-5.2-9.6-2.4-12 1.5-1.2 1.9-1.1 3.2.9 2.1 3.1 3 2.8 4.2-1.8 2-7.4 5-4.3 5 5.2 0 4 .3 4.8 1.8 4.8 4.3 0 5.3-4.6 2.7-12-.8-2.3-1.5-5.5-1.5-7.1 0-1.5-.4-3.1-1-3.4-2.1-1.3-1.1-7.5 1.6-10 1.5-1.4 3.1-2.5 3.6-2.5 1.9 0 2 3.4.1 7.4-1.6 3.3-1.8 4.6-.9 6.7 2.7 6.4 7 7.7 11 3.4 2.2-2.4 2.3-2.4 3.9-.5 3.1 3.7 4 2.5 3.3-4.3-.3-3.5-1.3-8.9-2.1-12.1-1.7-6.6-1.9-11-.5-13.6 2.1-4-1.1-6.3-5.5-3.8zm-.5 12.5c0 .9.5 3.1 1.1 4.8 1 2.6.8 3.9-.9 7.8-2 4.5-4.5 6.7-5.9 5.3-.4-.3.4-2.4 1.6-4.6 2-3.6 2.1-4.4 1-7.5-1-2.6-1-4-.1-6 1.3-2.7 3.2-2.6 3.2.2zm-51.6 36.5c.3 1.3.6 5.4.6 9.2 0 5.5-.5 7.8-2.7 11.7-2.7 5-5.3 6.5-5.3 3 0-1 .9-2.5 2-3.2 2.3-1.6 3.4-5.8 2.1-7.8-.8-1.2-1.3-1.2-3.5.2-3.4 2.3-4.8 2.1-4.4-.5.2-1.3 1.1-2.4 2.3-2.6 3.9-.7 5.7-3.4 5.2-7.4-.3-2-.2-3.9.1-4.2 1.2-1.3 3-.5 3.6 1.6zm-25 20.1c1.7 1.3 1.7 1.5.2 4.5-2.1 4.1-3.6 4.9-5.3 2.7-1.3-1.9-.9-4.9.9-7.3 1.3-1.5 2-1.5 4.2.1zm-49.1 7.4c.6 5.6.1 6.6-1.9 3.9-1.5-2.1-1.9-6.8-.7-7.9 1.4-1.5 2.1-.5 2.6 4zm19.7 4.1c0 .9-1.2 3-2.6 4.5-2 2.2-2.9 2.6-4 1.6-2-1.7-1.7-5.2.6-7.7 1.7-1.8 2.5-2 4-1.2 1.1.6 2 1.8 2 2.8zm-38.5 5.3c.9 2.7-3.5 7.5-5.9 6.6-1.9-.8-2.2-5.7-.4-7.5 2-2 5.6-1.4 6.3.9zm159.8-68.5c-.3.9.1 4 1.1 6.8.9 2.9 1.6 6.7 1.6 8.4 0 4.1 1.6 4.1 2.4.1 1.2-5.9.7-13.7-1-15.3-2-2-3.3-2-4.1 0zm-336.8 18.7c-.4 1.2-.1 3.6.5 5.2.9 2.3 1.3 2.6 2 1.5 1.7-2.7.9-9-1.1-9-.5 0-1.1 1-1.4 2.3zm93.2 7.4c-.6 3.5.9 6.5 3.1 6.1 2.4-.4 2.7-4.6.6-6.9-2.3-2.6-3.1-2.4-3.7.8zm-18.4 6c-2 .8-1.5 3.9.9 5.5 1.7 1.1 2.1 2.4 2.1 6 0 2.5-.5 6-1.2 7.7-1.5 3.5-.8 9.3 1.3 11 1 .8 2.1.8 4.2.1 4.2-1.6 5.7-.6 5 3.3s1 9.7 2.9 9.7c.9 0 1.4-3.4 2-12.2.4-6.7 1.1-13.3 1.6-14.6.8-2.2 1.4-2.4 5.2-2 5.4.7 12 3.5 11.2 4.8-.3.5-2.4 1-4.6 1-3.4 0-4.1.4-5 2.7-2 5.3 2.9 15.3 7.5 15.3 3 0 3.7.9 2.5 3.1-1.4 2.7-4.1 2.3-7.4-1.1-2.4-2.5-5.5-4-5.5-2.6 0 1.5 3.2 7.4 4.7 8.8 2.5 2.3 7.2 4 9.3 3.3 2.7-.9 4.3-5.7 3.5-10.6-.9-5-4.4-8.9-8-8.9-4.4 0-2.3-2.5 2.6-3 4.2-.5 4.4-.7 4.7-4 .4-4.2 1.5-5 5.1-3.9 1.4.5 6.1 1.6 10.4 2.4 7.1 1.5 7.7 1.8 7.7 4.1 0 2.1-.4 2.4-3.8 2.4-2.6 0-4.5-.7-5.7-2-2.5-2.7-5-2.5-7.4.7-2.8 3.5-3.7 7.2-2.2 9.4.6 1 1.1 3.5 1.1 5.4 0 3.5 4.1 11.5 6 11.5s1.9-1.8 0-6.9c-1.1-2.8-2-7.1-2-9.6 0-3.9.3-4.5 2.1-4.5 1.7 0 2 .4 1.5 2.4-.7 2.7 3.3 7.3 4.2 4.8.2-.7 1.5-2.5 2.8-4l2.5-2.7-.3 9c-.2 8.8 1.3 14.9 3.2 12.9.4-.5 1-7.3 1.3-15.2.3-11.3.8-14.6 2.1-16.1 1.9-2.1 2.1-5.7.4-6.8-.7-.4-3.8-1.1-6.8-1.4-8.4-1.1-18.3-2.6-20-3.2-2.5-.8-12.2-3.5-17-4.8-2.5-.6-7.9-2.4-12-3.9-9.2-3.5-11.2-4-12.7-3.3zm12.5 10.5c1.5 1.5 1.6 10.7.2 12.8-2.5 3.7-5.4-7.1-3.4-12.4.7-1.9 1.6-2 3.2-.4zm8.8 22.5c-1.2 1.2-.6 3.3.9 3.3.8 0 1.5-.6 1.5-1.4 0-1.7-1.4-2.8-2.4-1.9z"/></svg>